<?xml version="1.0" encoding="UTF-8" standalone="no"?>
<!-- Generator: Adobe Illustrator 16.0.0, SVG Export Plug-In . SVG Version: 6.00 Build 0)  -->

<svg
   xmlns:dc="http://purl.org/dc/elements/1.1/"
   xmlns:cc="http://creativecommons.org/ns#"
   xmlns:rdf="http://www.w3.org/1999/02/22-rdf-syntax-ns#"
   xmlns:svg="http://www.w3.org/2000/svg"
   xmlns="http://www.w3.org/2000/svg"
   xmlns:sodipodi="http://sodipodi.sourceforge.net/DTD/sodipodi-0.dtd"
   xmlns:inkscape="http://www.inkscape.org/namespaces/inkscape"
   version="1.1"
   id="Ebene_1"
   x="0px"
   y="0px"
   width="487.98px"
   height="100px"
   viewBox="0 0 487.98 100"
   enable-background="new 0 0 487.98 100"
   xml:space="preserve"
   sodipodi:docname="jugendhaekelt.svg"
   inkscape:version="0.92.2 5c3e80d, 2017-08-06"><metadata
     id="metadata43"><rdf:RDF><cc:Work
         rdf:about=""><dc:format>image/svg+xml</dc:format><dc:type
           rdf:resource="http://purl.org/dc/dcmitype/StillImage" /></cc:Work></rdf:RDF></metadata><defs
     id="defs41" /><sodipodi:namedview
     pagecolor="#ffffff"
     bordercolor="#666666"
     borderopacity="1"
     objecttolerance="10"
     gridtolerance="10"
     guidetolerance="10"
     inkscape:pageopacity="0"
     inkscape:pageshadow="2"
     inkscape:window-width="1340"
     inkscape:window-height="719"
     id="namedview39"
     showgrid="false"
     inkscape:zoom="1.3033321"
     inkscape:cx="218.1193"
     inkscape:cy="71.858958"
     inkscape:window-x="12"
     inkscape:window-y="12"
     inkscape:window-maximized="0"
     inkscape:current-layer="Ebene_1" /><polygon
     style="fill:#00a5dc"
     id="polygon2"
     points="0,53.999 0,0 487.98,0 487.98,71.999 27.822,71.999 0,100 0,71.999 " /><path
     style="fill:#ffffff"
     inkscape:connector-curvature="0"
     id="path4"
     d="m 331.866,20.412 h 4.587 v -4.614 h -4.587 z m -24.458,0 h 4.586 v -4.614 h -4.586 z m -24.451,0 h 4.584 v -4.614 h -4.584 z m -55.027,0 h 4.586 v -4.614 h -4.586 z m -6.116,0 h 4.584 v -4.614 h -4.584 z m -6.118,0 h 4.588 v -4.614 h -4.588 z m -6.11,0 h 4.586 v -4.614 h -4.586 z m -12.227,0 h 4.583 v -4.614 h -4.583 z m -24.457,0 h 4.587 v -4.614 h -4.587 z m -12.226,0 h 4.584 v -4.614 h -4.584 z m -6.114,0 h 4.584 v -4.614 h -4.584 z m -6.114,0 h 4.586 v -4.614 h -4.586 z m -6.116,0 h 4.588 v -4.614 h -4.588 z m -24.457,0 h 4.583 v -4.614 h -4.583 z m -6.112,0 h 4.587 v -4.614 h -4.587 z m -6.114,0 h 4.584 v -4.614 h -4.584 z m -18.344,0 h 4.586 v -4.614 h -4.586 z m -24.455,0 h 4.586 V 15.798 H 62.85 Z m -18.339,0 h 4.585 v -4.614 h -4.585 z m -6.116,0 h 4.584 v -4.614 h -4.584 z m -6.113,0 h 4.583 v -4.614 h -4.583 z m -6.115,0 h 4.586 v -4.614 h -4.586 z m 311.817,1.539 h 4.584 v -4.614 h -4.584 z m -12.23,0 h 4.58 v -4.614 h -4.58 z m -91.711,1.536 h 4.584 v -4.612 h -4.584 z m -97.824,0 h 4.584 v -4.612 h -4.584 z m -12.226,0 h 4.584 v -4.612 h -4.584 z m -24.459,0 h 4.584 v -4.612 h -4.584 z m -48.912,0 h 4.586 v -4.612 h -4.586 z m 293.472,3.08 h 4.586 v -4.616 h -4.586 z m -24.453,0 h 4.584 v -4.616 h -4.584 z m -12.233,0 h 4.586 v -4.616 h -4.586 z m -24.451,0 h 4.584 v -4.616 h -4.584 z m -73.371,0 h 4.586 v -4.616 h -4.586 z m -12.227,0 h 4.583 v -4.616 h -4.583 z m -24.457,0 h 4.587 v -4.616 h -4.587 z m -85.597,0 h 4.586 v -4.616 h -4.586 z m -24.455,0 h 4.586 V 21.951 H 62.85 Z m -36.683,0 h 4.586 v -4.616 h -4.586 z m 207.876,3.077 h 4.584 v -4.616 h -4.584 z m -97.824,0 h 4.584 v -4.616 h -4.584 z m -36.685,0 h 4.584 v -4.616 h -4.584 z m -48.912,0 h 4.586 v -4.616 h -4.586 z m 293.472,3.075 h 4.586 v -4.617 h -4.586 z m -24.453,0 h 4.584 v -4.617 h -4.584 z m -12.233,0 h 4.586 v -4.617 h -4.586 z m -24.451,0 h 4.584 v -4.617 h -4.584 z m -73.371,0 h 4.586 v -4.617 h -4.586 z m -12.227,0 h 4.583 v -4.617 h -4.583 z m -18.341,0 h 4.586 v -4.617 h -4.586 z m -6.116,0 h 4.587 v -4.617 h -4.587 z m -85.597,0 h 4.586 v -4.617 h -4.586 z m -24.455,0 h 4.586 V 28.102 H 62.85 Z m 171.193,3.075 h 4.584 V 31.18 h -4.584 z m -97.824,0 h 4.584 V 31.18 h -4.584 z m -36.685,0 h 4.584 V 31.18 h -4.584 z m -48.912,0 h 4.586 V 31.18 h -4.586 z m 293.472,3.077 h 4.586 v -4.616 h -4.586 z m -24.453,0 h 4.584 v -4.616 h -4.584 z m -12.233,0 h 4.586 v -4.616 h -4.586 z m -6.109,0 h 4.586 v -4.616 h -4.586 z m -6.115,0 h 4.586 v -4.616 h -4.586 z m -6.116,0 h 4.582 v -4.616 h -4.582 z m -6.111,0 h 4.584 v -4.616 h -4.584 z m -73.371,0 h 4.586 v -4.616 h -4.586 z m -12.227,0 h 4.583 v -4.616 h -4.583 z m -12.228,0 h 4.586 v -4.616 h -4.586 z m -12.229,0 h 4.587 v -4.616 h -4.587 z m -18.34,0 h 4.584 v -4.616 h -4.584 z m -6.114,0 h 4.586 v -4.616 h -4.586 z m -6.116,0 h 4.588 v -4.616 h -4.588 z m -55.027,0 h 4.586 v -4.616 h -4.586 z m -24.455,0 h 4.586 V 34.255 H 62.85 Z m 275.134,3.078 h 4.584 v -4.614 h -4.584 z m -6.118,0 h 4.587 v -4.614 h -4.587 z m -6.112,0 h 4.58 v -4.614 h -4.58 z m -91.711,0 h 4.584 v -4.614 h -4.584 z m -97.824,0 h 4.584 v -4.614 h -4.584 z m -12.226,0 h 4.584 v -4.614 h -4.584 z m -6.118,0 h 4.583 v -4.614 h -4.583 z m -6.112,0 h 4.587 v -4.614 h -4.587 z m -12.229,0 h 4.584 v -4.614 h -4.584 z m -48.912,0 h 4.586 v -4.614 h -4.586 z m 293.472,3.075 h 4.586 v -4.616 h -4.586 z m -24.453,0 h 4.584 v -4.616 h -4.584 z m -12.233,0 h 4.586 v -4.616 h -4.586 z m -24.451,0 h 4.584 v -4.616 h -4.584 z m -73.371,0 h 4.586 v -4.616 h -4.586 z m -12.227,0 h 4.583 v -4.616 h -4.583 z m -6.112,0 h 4.583 v -4.616 h -4.583 z m -18.345,0 h 4.587 v -4.616 h -4.587 z m -85.597,0 h 4.586 v -4.616 h -4.586 z m -24.455,0 h 4.586 V 40.408 H 62.85 Z m 171.193,3.08 h 4.584 v -4.618 h -4.584 z m -97.824,0 h 4.584 v -4.618 h -4.584 z m -12.226,0 h 4.584 v -4.618 h -4.584 z m -24.459,0 h 4.584 v -4.618 h -4.584 z m -48.912,0 h 4.586 v -4.618 h -4.586 z m -24.455,0 h 4.586 v -4.618 h -4.586 z m 317.927,3.072 h 4.586 v -4.613 h -4.586 z m -24.453,0 h 4.584 v -4.613 h -4.584 z m -12.233,0 h 4.586 v -4.613 h -4.586 z m -24.451,0 h 4.584 v -4.613 h -4.584 z m -73.371,0 h 4.586 v -4.613 h -4.586 z m -12.227,0 h 4.583 v -4.613 h -4.583 z m -24.457,0 h 4.587 v -4.613 h -4.587 z m -85.597,0 h 4.586 v -4.613 h -4.586 z m -24.455,0 h 4.586 V 46.563 H 62.85 Z m 171.193,3.079 h 4.584 V 49.64 h -4.584 z m -97.824,0 h 4.584 V 49.64 h -4.584 z m -12.226,0 h 4.584 V 49.64 h -4.584 z m -24.459,0 h 4.584 V 49.64 h -4.584 z m -48.912,0 h 4.586 V 49.64 h -4.586 z m -24.455,0 h 4.586 V 49.64 h -4.586 z m 317.927,3.078 h 4.586 v -4.616 h -4.586 z m -24.453,0 h 4.584 v -4.616 h -4.584 z m -12.233,0 h 4.586 v -4.616 h -4.586 z m -24.451,0 h 4.584 v -4.616 h -4.584 z m -55.027,0 h 4.586 v -4.616 h -4.586 z m -6.116,0 h 4.584 v -4.616 h -4.584 z m -6.118,0 h 4.588 v -4.616 h -4.588 z m -6.11,0 h 4.586 v -4.616 h -4.586 z m -12.227,0 h 4.583 v -4.616 h -4.583 z m -24.457,0 h 4.587 v -4.616 h -4.587 z m -12.226,0 h 4.584 v -4.616 h -4.584 z m -6.114,0 h 4.584 v -4.616 h -4.584 z m -6.114,0 h 4.586 v -4.616 h -4.586 z m -6.116,0 h 4.588 v -4.616 h -4.588 z m -24.457,0 h 4.583 v -4.616 h -4.583 z m -6.112,0 h 4.587 v -4.616 h -4.587 z m -6.114,0 h 4.584 v -4.616 h -4.584 z m -24.457,0 h 4.584 v -4.616 h -4.584 z m -6.113,0 h 4.584 v -4.616 h -4.584 z m -6.113,0 h 4.584 v -4.616 h -4.584 z m -24.455,0 h 4.585 v -4.616 h -4.585 z m -6.116,0 h 4.584 v -4.616 h -4.584 z m -6.113,0 h 4.583 v -4.616 h -4.583 z"
     sodipodi:nodetypes="ccccccccccccccccccccccccccccccccccccccccccccccccccccccccccccccccccccccccccccccccccccccccccccccccccccccccccccccccccccccccccccccccccccccccccccccccccccccccccccccccccccccccccccccccccccccccccccccccccccccccccccccccccccccccccccccccccccccccccccccccccccccccccccccccccccccccccccccccccccccccccccccccccccccccccccccccccccccccccccccccccccccccccccccccccccccccccccccccccccccccccccccccccccccccccccccccccccccccccccccccccccccccccccccccccccccccccccccccccccccccccccccccccccccccccccccccccccccccccccccccccccccccccccccccccccccccccccccccccccccccccccccccccccccccccccccccccccccccccccccccccccccccccccccccccccccccccccccccccccccccccccccccccccccccccccccccccccccccccccccccccccccccccccccccccccccccccccccccccccccccccccc" /><g
     id="g8" /><g
     id="g10" /><g
     id="g12" /><g
     id="g14" /><g
     id="g16" /><g
     id="g18" /><g
     id="g20" /><g
     id="g22" /><g
     id="g24" /><g
     id="g26" /><g
     id="g28" /><g
     id="g30" /><g
     id="g32" /><g
     id="g34" /><g
     id="g36" /><path
     style="fill:#ffffff"
     inkscape:connector-curvature="0"
     id="path4-3"
     d="m 344.094,12.567 h 4.586 V 7.951 h -4.586 z m -24.453,0 h 4.584 V 7.951 h -4.584 z"
     sodipodi:nodetypes="cccccccccc" /><path
     style="fill:#ffffff"
     inkscape:connector-curvature="0"
     id="path4-6"
     d="m 379.135,20.412 h 4.582 v -4.614 h -4.582 z m -24.455,0 h 4.587 v -4.614 h -4.587 z m 18.345,6.155 h 4.586 v -4.616 h -4.586 z m -18.345,0 h 4.587 v -4.616 h -4.587 z m 12.228,6.152 h 4.584 v -4.617 h -4.584 z m -12.228,0 h 4.587 v -4.617 h -4.587 z m 6.112,6.152 h 4.586 v -4.616 h -4.586 z m -6.112,0 h 4.587 v -4.616 h -4.587 z m 12.228,6.153 h 4.584 v -4.616 h -4.584 z m -12.228,0 h 4.587 v -4.616 h -4.587 z m 18.345,6.152 h 4.586 v -4.613 h -4.586 z m -18.345,0 h 4.587 v -4.613 h -4.587 z m 24.455,6.157 h 4.582 v -4.616 h -4.582 z m -24.455,0 h 4.587 v -4.616 h -4.587 z"
     sodipodi:nodetypes="cccccccccccccccccccccccccccccccccccccccccccccccccccccccccccccccccccccc" /><path
     style="fill:#ffffff"
     inkscape:connector-curvature="0"
     id="path4-6-7"
     d="m 473.217,20.412 h 4.585 v -4.614 h -4.585 z m -6.114,0 h 4.59 v -4.614 h -4.59 z m -6.11,0 h 4.582 v -4.614 h -4.582 z m -6.118,0 h 4.587 v -4.614 h -4.587 z m -6.111,0 h 4.584 v -4.614 h -4.584 z m 12.229,6.155 h 4.582 v -4.616 h -4.582 z m 0,6.152 h 4.582 v -4.617 h -4.582 z m 0,6.152 h 4.582 v -4.616 h -4.582 z m 0,6.153 h 4.582 v -4.616 h -4.582 z m 0,6.152 h 4.582 v -4.613 h -4.582 z m 0,6.157 h 4.582 v -4.616 h -4.582 z"
     sodipodi:nodetypes="ccccccccccccccccccccccccccccccccccccccccccccccccccccccc" /><path
     style="fill:#ffffff"
     inkscape:connector-curvature="0"
     id="path4-5"
     d="m 415.479,20.412 h 4.584 v -4.614 h -4.584 z m -6.114,0 h 4.584 v -4.614 h -4.584 z m -6.114,0 h 4.586 v -4.614 h -4.586 z m -6.116,0 h 4.588 v -4.614 h -4.588 z m -6.113,3.075 h 4.584 v -4.612 h -4.584 z m 0,6.157 h 4.584 v -4.616 h -4.584 z m 0,6.15 h 4.584 V 31.18 h -4.584 z m 18.343,3.077 h 4.584 v -4.616 h -4.584 z m -6.114,0 h 4.586 v -4.616 h -4.586 z m -6.116,0 h 4.588 v -4.616 h -4.588 z m -6.113,3.078 h 4.584 v -4.614 h -4.584 z m 0,6.155 h 4.584 v -4.618 h -4.584 z m 0,6.151 h 4.584 V 49.64 h -4.584 z m 24.457,3.078 h 4.584 v -4.616 h -4.584 z m -6.114,0 h 4.584 v -4.616 h -4.584 z m -6.114,0 h 4.586 v -4.616 h -4.586 z m -6.116,0 h 4.588 v -4.616 h -4.588 z"
     sodipodi:nodetypes="ccccccccccccccccccccccccccccccccccccccccccccccccccccccccccccccccccccccccccccccccccccc" /><path
     style="fill:#ffffff"
     inkscape:connector-curvature="0"
     id="path4-35"
     d="m 426.063,20.412 h 4.586 v -4.614 h -4.586 z m 0,6.155 h 4.586 v -4.616 h -4.586 z m 0,6.152 h 4.586 v -4.617 h -4.586 z m 0,6.152 h 4.586 v -4.616 h -4.586 z m 0,6.153 h 4.586 v -4.616 h -4.586 z m 0,6.152 h 4.586 v -4.613 h -4.586 z m 18.344,6.157 h 4.586 v -4.616 h -4.586 z m -6.116,0 h 4.584 v -4.616 h -4.584 z m -6.118,0 h 4.588 v -4.616 h -4.588 z m -6.11,0 h 4.586 v -4.616 h -4.586 z"
     sodipodi:nodetypes="cccccccccccccccccccccccccccccccccccccccccccccccccc" /></svg>