<?xml version="1.0" encoding="UTF-8" standalone="no"?>
<svg
   xmlns:dc="http://purl.org/dc/elements/1.1/"
   xmlns:cc="http://creativecommons.org/ns#"
   xmlns:rdf="http://www.w3.org/1999/02/22-rdf-syntax-ns#"
   xmlns:svg="http://www.w3.org/2000/svg"
   xmlns="http://www.w3.org/2000/svg"
   xmlns:sodipodi="http://sodipodi.sourceforge.net/DTD/sodipodi-0.dtd"
   xmlns:inkscape="http://www.inkscape.org/namespaces/inkscape"
   class="netzpolitik__logo"
   viewBox="0 0 955.79 110.76"
   version="1.1"
   id="svg18"
   sodipodi:docname="nerdpolitik.org.svg"
   inkscape:version="0.92.2 5c3e80d, 2017-08-06">
  <metadata
     id="metadata22">
    <rdf:RDF>
      <cc:Work
         rdf:about="">
        <dc:format>image/svg+xml</dc:format>
        <dc:type
           rdf:resource="http://purl.org/dc/dcmitype/StillImage" />
      </cc:Work>
    </rdf:RDF>
  </metadata>
  <sodipodi:namedview
     pagecolor="#ffffff"
     bordercolor="#666666"
     borderopacity="1"
     objecttolerance="10"
     gridtolerance="10"
     guidetolerance="10"
     inkscape:pageopacity="0"
     inkscape:pageshadow="2"
     inkscape:window-width="1366"
     inkscape:window-height="768"
     id="namedview20"
     showgrid="false"
     inkscape:zoom="0.47052169"
     inkscape:cx="407.60057"
     inkscape:cy="0.65837059"
     inkscape:window-x="0"
     inkscape:window-y="0"
     inkscape:window-maximized="0"
     inkscape:current-layer="svg18" />
  <defs
     id="defs4">
    <style
       id="style2">.\34 52ebd62-4b9c-4610-828d-642cc0314c9c{fill:#83a7dd;}.\37 f8c7de5-63aa-47de-b7a3-04b960c2229e{fill:#568cd1;}.\34 fe6b593-ae34-497f-956e-b97e4eab6262{fill:#176fc1;}</style>
  </defs>
  <title
     id="title6">netzpolitik.org</title>
  <desc
     id="desc8">Politik in der digitalen Gesellschaft</desc>
  <path
     data-name="path118"
     class="452ebd62-4b9c-4610-828d-642cc0314c9c"
     d="M168.92,104.45c-.84.09-1.69.18-2.51.31-7.52,2.09-15.76,13.58-18.3,30.72a110.52,110.52,0,0,1,27-3.22,117.89,117.89,0,0,1,14.22.86c-5.32-17-13.1-28.41-20.42-28.67Zm-4.4.71A55.73,55.73,0,0,0,120,151.89c4-6.37,12.61-11.8,24-15.32,3.86-14.83,11.34-26.32,20.5-31.42Zm21.21,0c9.17,5.1,16.56,16.59,20.42,31.42,11.43,3.52,20.13,8.95,24.12,15.32a55.73,55.73,0,0,0-44.54-46.74Z"
     id="path12"
     transform="translate(-119.75 -104.45)" />
  <path
     data-name="path122"
     class="7f8c7de5-63aa-47de-b7a3-04b960c2229e"
     d="M190.52,137.28a101.81,101.81,0,0,0-13.59.63,141.66,141.66,0,0,0-29.54,6.21,84.38,84.38,0,0,0,.71,13.9A131.92,131.92,0,0,0,152,176.64a177.16,177.16,0,0,0,25.69-1,183.42,183.42,0,0,0,18.15-2.83c-.16-5-.55-10.19-1.26-15.55a150.19,150.19,0,0,0-4.08-20Zm16.26,1.81a93.91,93.91,0,0,1,2.28,20.74c0,3.29-.16,6.53-.47,9.66,14-4.42,22.72-10.22,21.84-15.63S220.74,142.12,206.79,139.09Zm-64.65,7c-16.27,6.58-23.17,15-22.31,19.72.9,5,9.66,8.6,22.7,10.13a99.1,99.1,0,0,1-.39-29.85Z"
     id="path14"
     transform="translate(-119.75 -104.45)" />
  <path
     data-name="path126"
     class="4fe6b593-ae34-497f-956e-b97e4eab6262"
     d="M120,167.76a55.74,55.74,0,0,0,44.54,46.74c-9.16-5.11-16.64-16.6-20.5-31.42C132.59,179.56,124,174.13,120,167.76Zm110.29,0c-4,6.37-12.68,11.8-24.12,15.32-3.86,14.83-11.25,26.32-20.42,31.42A55.73,55.73,0,0,0,230.27,167.76Zm-34.64,17.83a117.1,117.1,0,0,1-40.54.08c7.85,20.09,19.3,29.32,26.16,29.54.77-.09,1.51-.19,2.28-.31,6.55-2,10.94-13.4,12.1-29.3Z"
     id="path16"
     transform="translate(-119.75 -104.45)" />
  <path
     inkscape:connector-curvature="0"
     data-name="path64"
     d="m 947.64,71.55 v 7.4 l 1.5,10.3 h -3.32 c -1.29,0 -1.82,0.11 -10,2.68 -4.60984,1.27495 -9.37758,1.88775 -14.16,1.82 -10.94,0 -17.37,-2.25 -23.59,-8.15 -7.19,-6.86 -11.15,-16.40999 -11.15,-27.12999 0,-10.08 3.54,-19.63 9.65,-26.17 6.65,-7.08 14.91,-10.3 26.38,-10.3 7.19,0 11.8,0.86 22.42,4.4 l 0.75,16.3 -2.15,1.5 c -6.76,-13.41 -12.44,-17.8 -23,-17.8 -13.73,0 -23,12.54 -23,31.1 C 897.97,75.84 908.48,88.6 923.6,88.6 c 10,0 15,-4.08 15,-11.91 v -4.4 c 0,-7.60999 -2,-9.85999 -10.29,-11.46999 v -2.57 h 27.35 v 2.15 c -6.65,2.14 -8.15,4.18 -8.15,11.14999 m -86,-25.51999 c -3.22,-2.57 -4.72,-3.43 -13.83,-3.43 v 22.41 c 2.36,1 3.32,1.61 6.43,1.61 1.81727,0.0751 3.63313,-0.17902 5.36,-0.75 4,-2.68 5.9,-6 5.9,-10.62 0,-3.43 -1.08,-7 -3.86,-9.22 M 882.54,93.55 c -5.15,0 -9.65,-1.93 -14.26,-6.22 -4,-3.54 -7,-7.83 -12.33,-17.27 -1.72,0.1 -3.11,0.22 -4,0.22 -0.89,0 -2.36,-0.11 -4.18,-0.22 v 11.37 c 0,5.68 2,7.72 8.79,8.58 v 2.25 h -26.6 v -2.25 c 7,-0.64 8.9,-2.57 8.9,-8.58 V 51.30001 c 0,-6.54 -1.71,-8.69 -8.15,-10.41 v -2.25 l 14.8,0.86 c 3.92326,-0.74938 7.90597,-1.1443 11.9,-1.18 10,0 16.08,4.83 16.08,12.87 -0.0236,2.85247 -0.7592,5.65389 -2.14,8.15 -1.5,2.68 -3.22,4.51 -7.94,8.47 8,10.72999 11.58,14.99999 15.55,18.44999 2.9,2.57 5.36,3.43 11.91,4.51 v 1.39 c -2.68998,0.93857 -5.52104,1.40873 -8.37,1.39 M 792.95,41.75001 c -10.94,0 -18.66,9.55 -18.66,22.84 0,13.99999 9.55,24.87999 21.77,24.87999 10.73,0 18.88,-8.9 18.88,-22.30999 0,-14.37 -8.9,-25.42 -22,-25.42 M 794.33,93.43 c -17.37,0 -30,-11.58 -30,-27.55999 0,-16.41 11.58,-28 30.14,-28 17.91,0 30.46,11.69 30.46,28 C 824.93,82.18 812.49,93.43 794.36,93.43 M 752,93.75 c -3.80716,-0.0491 -6.84369,-3.19344 -6.76,-7 0.0212,-3.98392 3.30716,-7.17518 7.29,-7.08 3.80958,0.0435 6.84937,3.19122 6.76,7 -0.0603,3.96716 -3.32277,7.13564 -7.29,7.08 m -19.07,1.07 c -4.93,0 -10.19,-2.25 -14.91,-6.22 -4.06528,-3.69542 -7.83046,-7.70805 -11.26,-12 -2.68,-3.43 -5.79,-7.28999 -9.33,-11.68999 l 12,-12.22 4.61,-4.93 c 1.06946,-1.01276 1.71909,-2.39056 1.82,-3.86 0,-1.29 -1,-2.25 -3.54,-2.89 v -2.26 h 23 v 2.25 c -9.76,3.43 -13.19,5.58 -20.59,12.54 l -8.79,8.8 14.48,16.40999 c 2.50381,2.80586 5.17537,5.45739 8,7.94 2.81281,2.64114 6.13346,4.68253 9.76,6 v 1.5 c -1.73127,0.36819 -3.49118,0.58567 -5.26,0.65 m -54.59,-2.57 v -2.26 c 7,-0.64 8.9,-2.57 8.9,-8.58 V 50.01001 c 0,-5.47 -1.61,-7.3 -7.4,-9 v -2.26 h 24.42 v 2.25 c -6.33,1.39 -8,3.32 -8,9 V 81.43 c 0,6 1.93,7.93 8.79,8.58 v 2.26 h -26.6 z m -38.07,0 v -2.25 c 7.4,-0.54 9.66,-2.57 9.66,-8.58 V 49.91001 c 0,-6.12 -1.93,-7.94 -8.91,-8.9 v -2.26 h 27.35 v 2.25 c -7.51,0.75 -9.66,2.68 -9.66,8.9 V 81.43 c 0,6.22 2.14,8.15 9.66,8.58 v 2.25 z m -6.21,-38.17999 c -4.51,-7.72 -6.76,-9.87 -14.48,-9.87 h -6.65 V 79.29 c 0,7.51 2.68,10 11.8,10.72 v 2.26 H 592.9 v -2.26 c 8.58,-1 11.15,-3.43 11.15,-10.72 V 44.22001 h -6.65 c -7.08,0 -10.19,2.25 -14.48,9.55 l -1.82,-1.07 3,-14.69 c 8.37,2.14 10.62,2.36 23.92,2.36 13.94,0 16.2,-0.21 24.88,-2.36 l 2.9,14.69 -1.72,1.39 z M 548.15,92.27 v -2.25 c 7.4,-0.54 9.65,-2.57 9.65,-8.58 V 49.91001 c 0,-6.12 -1.93,-7.94 -8.9,-8.9 v -2.26 h 27.35 v 2.25 c -7.51,0.75 -9.65,2.68 -9.65,8.9 V 81.43 c 0,6.22 2.14,8.15 9.65,8.58 v 2.25 h -28.1 z m -7.61,0 h -44.79 v -2.25 c 7.29,-0.54 9.33,-2.47 9.33,-8.58 V 51.73001 c 0,-7.18 -1.07,-8.9 -6.65,-10.72 v -2.26 h 25.1 v 2.25 c -7.4,0.75 -9.55,2.68 -9.55,8.47 V 80.47 c 0,5.9 2.89,8.15 10.51,8.15 7.94,0 11.9,-3.75 15.66,-14.8 l 2.25,0.64 -1.82,17.8 z M 457.96,41.75001 c -10.94,0 -18.66,9.55 -18.66,22.84 0,13.99999 9.55,24.87999 21.77,24.87999 10.72,0 18.87,-8.9 18.87,-22.30999 0,-14.37 -8.9,-25.42 -22,-25.42 m 1.4,51.68999 c -17.37,0 -30,-11.58 -30,-27.55999 0,-16.41 11.58,-28 30.14,-28 17.91,0 30.46,11.69 30.46,28 C 489.94,82.18 477.5,93.43 459.37,93.43 M 397.88,73.8 397.13,72.3 c 10.4,-2.46 14.69,-7.17999 14.69,-15.86999 0,-5.47 -2.36,-9.87 -6.76,-12.23 -3.11,-1.83 -5.79,-2.36 -12.33,-2.47 V 81.42 c 0,5.25 3.54,7.93 11.8,8.58 v 2.26 H 374.95 V 90 c 7.08,-0.64 8.91,-2.46 8.91,-8.9 V 49.91001 c 0,-5.9 -1.5,-7.51 -7.4,-8.15 v -2.21 c 5.65994,-0.66449 11.35145,-1.025 17.05,-1.08 17.7,0 27,6 27,17.38 0,10.4 -9.44,17.90999 -22.63,17.99999 M 251.36,92.3 h -45.45 v -2.25 c 7.19,-0.54 9.23,-2.47 9.23,-8.58 V 50.55001 c 0,-6.76 -1.29,-8.47 -7.4,-9.55 v -2.25 h 41.4 l 1.5,12.22 -2.26,0.75 c -4,-7.4 -6.43,-9 -14.37,-9.33 l -10,-0.32 v 20.7 l 7.72,-0.32 c 5.79,-0.32 7.29,-1.72 8.9,-7.83 h 2.25 V 74.25 h -2.25 c -1.72,-5.99999 -3.54,-7.50999 -8.9,-7.71999 l -7.72,-0.43 V 81.01 c 0,6.65 1.29,7.51 10.51,7.51 8.69,0 12.12,-2.14 17.16,-10.62 l 2.25,0.64 z M 191.12,37.55001 189.62,90.75 185.54,94.61 144.47,37.87001 145.22,78.2 c 0.21,8.9 1.93,10.72 11.15,11.8 v 2.25 H 127.52 V 90 c 8.58,-1.29 10,-2.9 10.3,-11.8 l 1.5,-34.74999 c 0,-12.12 -1.5,-14.69 -10.3,-17.8 v -2.1 h 16 L 184.49,78.25 183.72,37.55001 c -0.22,-8.68 -1.82,-10.51 -10.4,-11.9 v -2.1 h 28.1 v 2.14 c -8.47,1.39 -10.08,3.11 -10.3,11.9"
     id="path10-6"
     sodipodi:nodetypes="cccscccscscccsssssccccccccccsccccscsccccssccccccccccccsssccsssccccccccccccccccccccccccccssccccssccccccssccccssccccscsccccscscccsccccccssccccsscccccccssccccssscccccsssccssscccsccsccccsscccsccccsscccccccccccccccsscccccccccccccccccccccccc" />
  <path
     inkscape:connector-curvature="0"
     data-name="path64"
     d="m 287.8,46.17001 c -3.22,-2.57 -4.72,-3.43 -13.83,-3.43 v 22.41 c 2.36,1 3.32,1.61 6.43,1.61 1.81727,0.0751 3.63313,-0.17902 5.36,-0.75 4,-2.68 5.9,-6 5.9,-10.62 0,-3.43 -1.08,-7 -3.86,-9.22 M 308.83,93.69 c -5.15,0 -9.65,-1.93 -14.26,-6.22 -4,-3.54 -7,-7.83 -12.33,-17.27 -1.72,0.1 -3.11,0.22 -4,0.22 -0.89,0 -2.36,-0.11 -4.18,-0.22 v 11.37 c 0,5.68 2,7.72 8.79,8.58 v 2.25 h -26.6 v -2.25 c 7,-0.64 8.9,-2.57 8.9,-8.58 V 51.44001 c 0,-6.54 -1.71,-8.69 -8.15,-10.41 v -2.25 l 14.8,0.86 c 3.92326,-0.74938 7.90597,-1.1443 11.9,-1.18 10,0 16.08,4.83 16.08,12.87 -0.0236,2.85247 -0.7592,5.65389 -2.14,8.15 -1.5,2.68 -3.22,4.51 -7.94,8.47 8,10.72999 11.2043,15.281768 15.1743,18.731768 2.9,2.57 4.51466,3.148222 11.06466,4.228222 v 1.39 c -2.68998,0.93857 -4.3,1.40873 -7.14896,1.39"
     id="path10-6-3"
     sodipodi:nodetypes="cccccsccccscsccccssccccccccccc" />
  <path
     d="m 317.85489,38.75584 v 2.25976 c 6.96999,0.96 8.90039,2.78039 8.90039,8.90039 v 31.5293 c 0,6.01 -2.2504,8.04008 -9.65039,8.58008 v 2.24023 h 28.0996 c 25.74551,-2.2656 42.27382,-53.26086 0,-53.50976 z m 22.18086,4.75272 c 25.01753,-1.62026 28.37346,40.03198 1.91409,43.63692 -8.22718,0.73954 -7.50313,-5.10229 -7.50313,-23.91113 -10e-4,-15.72652 -1.25855,-19.726 5.58904,-19.72579 z"
     id="path10-6-5"
     inkscape:connector-curvature="0"
     sodipodi:nodetypes="csscccccccccc" />
</svg>
